<svg width="324" height="131" viewBox="0 0 324 131" fill="none" xmlns="http://www.w3.org/2000/svg">
<rect y="1" width="320" height="129" rx="10" fill="#004F9F"/>
<path d="M42.6163 48C42.5363 48 42.4643 47.976 42.4003 47.928C42.3523 47.864 42.3283 47.792 42.3283 47.712V31.488C42.3283 31.408 42.3523 31.344 42.4003 31.296C42.4643 31.232 42.5363 31.2 42.6163 31.2H48.7363C49.9843 31.2 51.0883 31.416 52.0483 31.848C53.0083 32.28 53.7523 32.896 54.2803 33.696C54.8083 34.496 55.0723 35.416 55.0723 36.456V42.744C55.0723 43.784 54.8083 44.704 54.2803 45.504C53.7523 46.304 53.0083 46.92 52.0483 47.352C51.0883 47.784 49.9843 48 48.7363 48H42.6163ZM46.3123 44.472C46.3123 44.552 46.3523 44.592 46.4323 44.592H48.9043C49.5443 44.592 50.0643 44.368 50.4643 43.92C50.8643 43.456 51.0723 42.84 51.0883 42.072V37.128C51.0883 36.36 50.8803 35.752 50.4643 35.304C50.0643 34.84 49.5363 34.608 48.8803 34.608H46.4323C46.3523 34.608 46.3123 34.648 46.3123 34.728V44.472ZM57.4523 48C57.3723 48 57.3003 47.976 57.2363 47.928C57.1883 47.864 57.1643 47.792 57.1643 47.712V31.488C57.1643 31.408 57.1883 31.344 57.2363 31.296C57.3003 31.232 57.3723 31.2 57.4523 31.2H60.8603C60.9403 31.2 61.0043 31.232 61.0523 31.296C61.1163 31.344 61.1483 31.408 61.1483 31.488V47.712C61.1483 47.792 61.1163 47.864 61.0523 47.928C61.0043 47.976 60.9403 48 60.8603 48H57.4523ZM69.6838 48.192C68.4038 48.192 67.2758 47.944 66.2998 47.448C65.3398 46.952 64.5878 46.248 64.0438 45.336C63.5158 44.424 63.2518 43.368 63.2518 42.168V36.984C63.2518 35.8 63.5158 34.76 64.0438 33.864C64.5878 32.952 65.3398 32.248 66.2998 31.752C67.2758 31.256 68.4038 31.008 69.6838 31.008C70.9638 31.008 72.0838 31.248 73.0438 31.728C74.0198 32.192 74.7718 32.856 75.2998 33.72C75.8438 34.568 76.1158 35.552 76.1158 36.672C76.1158 36.752 76.0838 36.816 76.0198 36.864C75.9718 36.912 75.9078 36.936 75.8278 36.936L72.4198 37.152C72.2278 37.152 72.1318 37.064 72.1318 36.888C72.1318 36.136 71.9078 35.536 71.4598 35.088C71.0118 34.64 70.4198 34.416 69.6838 34.416C68.9478 34.416 68.3558 34.648 67.9078 35.112C67.4598 35.56 67.2358 36.152 67.2358 36.888V42.336C67.2358 43.072 67.4598 43.664 67.9078 44.112C68.3558 44.56 68.9478 44.784 69.6838 44.784C70.4198 44.784 71.0118 44.56 71.4598 44.112C71.9078 43.664 72.1318 43.072 72.1318 42.336C72.1318 42.16 72.2278 42.072 72.4198 42.072L75.8278 42.24C75.9078 42.24 75.9718 42.264 76.0198 42.312C76.0838 42.36 76.1158 42.416 76.1158 42.48C76.1158 43.616 75.8438 44.616 75.2998 45.48C74.7718 46.344 74.0198 47.016 73.0438 47.496C72.0838 47.96 70.9638 48.192 69.6838 48.192ZM88.5932 48C88.4172 48 88.3052 47.92 88.2572 47.76L87.6332 45.624C87.6012 45.56 87.5612 45.528 87.5132 45.528H82.0412C81.9932 45.528 81.9532 45.56 81.9212 45.624L81.2972 47.76C81.2492 47.92 81.1372 48 80.9612 48H77.2892C77.1932 48 77.1212 47.976 77.0732 47.928C77.0252 47.864 77.0172 47.776 77.0492 47.664L82.1852 31.44C82.2332 31.28 82.3372 31.2 82.4972 31.2H87.0332C87.1932 31.2 87.2972 31.28 87.3452 31.44L92.5052 47.664C92.5212 47.696 92.5292 47.736 92.5292 47.784C92.5292 47.928 92.4412 48 92.2652 48H88.5932ZM82.8812 42.312C82.8652 42.408 82.8972 42.456 82.9772 42.456H86.5532C86.6492 42.456 86.6812 42.408 86.6492 42.312L84.8252 36.144C84.8092 36.08 84.7852 36.056 84.7532 36.072C84.7212 36.072 84.6972 36.096 84.6812 36.144L82.8812 42.312ZM99.2603 48.192C97.9323 48.192 96.7723 47.984 95.7803 47.568C94.8043 47.136 94.0443 46.528 93.5003 45.744C92.9723 44.944 92.7083 44.024 92.7083 42.984V42.528C92.7083 42.448 92.7323 42.384 92.7803 42.336C92.8443 42.272 92.9163 42.24 92.9963 42.24H96.3323C96.4123 42.24 96.4763 42.272 96.5243 42.336C96.5883 42.384 96.6203 42.448 96.6203 42.528V42.816C96.6203 43.344 96.8843 43.808 97.4123 44.208C97.9403 44.592 98.6523 44.784 99.5483 44.784C100.252 44.784 100.772 44.632 101.108 44.328C101.444 44.024 101.612 43.672 101.612 43.272C101.612 42.952 101.508 42.696 101.3 42.504C101.108 42.296 100.844 42.128 100.508 42C100.172 41.856 99.6523 41.664 98.9483 41.424C98.8523 41.376 98.7563 41.344 98.6603 41.328C98.5643 41.296 98.4763 41.264 98.3963 41.232C97.3563 40.896 96.4523 40.536 95.6843 40.152C94.9163 39.752 94.2603 39.208 93.7163 38.52C93.1723 37.816 92.9003 36.952 92.9003 35.928C92.9003 34.936 93.1563 34.072 93.6683 33.336C94.1963 32.584 94.9243 32.008 95.8523 31.608C96.7803 31.208 97.8283 31.008 98.9963 31.008C100.228 31.008 101.332 31.232 102.308 31.68C103.3 32.128 104.076 32.76 104.636 33.576C105.196 34.392 105.476 35.328 105.476 36.384V36.72C105.476 36.8 105.444 36.872 105.38 36.936C105.332 36.984 105.268 37.008 105.188 37.008H101.852C101.772 37.008 101.7 36.984 101.636 36.936C101.588 36.872 101.564 36.8 101.564 36.72V36.552C101.564 35.992 101.316 35.496 100.82 35.064C100.324 34.632 99.6603 34.416 98.8283 34.416C98.2043 34.416 97.7163 34.544 97.3643 34.8C97.0123 35.056 96.8363 35.416 96.8363 35.88C96.8363 36.232 96.9483 36.528 97.1723 36.768C97.3963 36.992 97.7403 37.208 98.2043 37.416C98.6843 37.608 99.4123 37.864 100.388 38.184C101.508 38.568 102.38 38.904 103.004 39.192C103.628 39.48 104.212 39.952 104.756 40.608C105.316 41.248 105.596 42.096 105.596 43.152C105.596 44.192 105.332 45.088 104.804 45.84C104.276 46.592 103.532 47.176 102.572 47.592C101.628 47.992 100.524 48.192 99.2603 48.192ZM112.624 48C112.544 48 112.472 47.976 112.408 47.928C112.36 47.864 112.336 47.792 112.336 47.712V31.488C112.336 31.408 112.36 31.344 112.408 31.296C112.472 31.232 112.544 31.2 112.624 31.2H118.744C119.992 31.2 121.096 31.416 122.056 31.848C123.016 32.28 123.76 32.896 124.288 33.696C124.816 34.496 125.08 35.416 125.08 36.456V42.744C125.08 43.784 124.816 44.704 124.288 45.504C123.76 46.304 123.016 46.92 122.056 47.352C121.096 47.784 119.992 48 118.744 48H112.624ZM116.32 44.472C116.32 44.552 116.36 44.592 116.44 44.592H118.912C119.552 44.592 120.072 44.368 120.472 43.92C120.872 43.456 121.08 42.84 121.096 42.072V37.128C121.096 36.36 120.888 35.752 120.472 35.304C120.072 34.84 119.544 34.608 118.888 34.608H116.44C116.36 34.608 116.32 34.648 116.32 34.728V44.472ZM139.1 34.32C139.1 34.4 139.068 34.472 139.004 34.536C138.956 34.584 138.892 34.608 138.812 34.608H131.276C131.196 34.608 131.156 34.648 131.156 34.728V37.68C131.156 37.76 131.196 37.8 131.276 37.8H136.1C136.18 37.8 136.244 37.832 136.292 37.896C136.356 37.944 136.388 38.008 136.388 38.088V40.896C136.388 40.976 136.356 41.048 136.292 41.112C136.244 41.16 136.18 41.184 136.1 41.184H131.276C131.196 41.184 131.156 41.224 131.156 41.304V44.472C131.156 44.552 131.196 44.592 131.276 44.592H138.812C138.892 44.592 138.956 44.624 139.004 44.688C139.068 44.736 139.1 44.8 139.1 44.88V47.712C139.1 47.792 139.068 47.864 139.004 47.928C138.956 47.976 138.892 48 138.812 48H127.46C127.38 48 127.308 47.976 127.244 47.928C127.196 47.864 127.172 47.792 127.172 47.712V31.488C127.172 31.408 127.196 31.344 127.244 31.296C127.308 31.232 127.38 31.2 127.46 31.2H138.812C138.892 31.2 138.956 31.232 139.004 31.296C139.068 31.344 139.1 31.408 139.1 31.488V34.32ZM23.0901 77.192C21.8101 77.192 20.6821 76.944 19.7061 76.448C18.7461 75.952 17.9941 75.248 17.4501 74.336C16.9221 73.424 16.6581 72.368 16.6581 71.168V65.984C16.6581 64.8 16.9221 63.76 17.4501 62.864C17.9941 61.952 18.7461 61.248 19.7061 60.752C20.6821 60.256 21.8101 60.008 23.0901 60.008C24.3701 60.008 25.4901 60.248 26.4501 60.728C27.4261 61.192 28.1781 61.856 28.7061 62.72C29.2501 63.568 29.5221 64.552 29.5221 65.672C29.5221 65.752 29.4901 65.816 29.4261 65.864C29.3781 65.912 29.3141 65.936 29.2341 65.936L25.8261 66.152C25.6341 66.152 25.5381 66.064 25.5381 65.888C25.5381 65.136 25.3141 64.536 24.8661 64.088C24.4181 63.64 23.8261 63.416 23.0901 63.416C22.3541 63.416 21.7621 63.648 21.3141 64.112C20.8661 64.56 20.6421 65.152 20.6421 65.888V71.336C20.6421 72.072 20.8661 72.664 21.3141 73.112C21.7621 73.56 22.3541 73.784 23.0901 73.784C23.8261 73.784 24.4181 73.56 24.8661 73.112C25.3141 72.664 25.5381 72.072 25.5381 71.336C25.5381 71.16 25.6341 71.072 25.8261 71.072L29.2341 71.24C29.3141 71.24 29.3781 71.264 29.4261 71.312C29.4901 71.36 29.5221 71.416 29.5221 71.48C29.5221 72.616 29.2501 73.616 28.7061 74.48C28.1781 75.344 27.4261 76.016 26.4501 76.496C25.4901 76.96 24.3701 77.192 23.0901 77.192ZM37.8111 77.264C36.5151 77.264 35.3711 77.008 34.3791 76.496C33.4031 75.968 32.6431 75.232 32.0991 74.288C31.5551 73.344 31.2831 72.248 31.2831 71V66.2C31.2831 64.984 31.5551 63.912 32.0991 62.984C32.6431 62.04 33.4031 61.312 34.3791 60.8C35.3711 60.272 36.5151 60.008 37.8111 60.008C39.1071 60.008 40.2511 60.272 41.2431 60.8C42.2351 61.312 43.0031 62.04 43.5471 62.984C44.0911 63.912 44.3631 64.984 44.3631 66.2V71C44.3631 72.248 44.0911 73.344 43.5471 74.288C43.0031 75.232 42.2351 75.968 41.2431 76.496C40.2511 77.008 39.1071 77.264 37.8111 77.264ZM37.8111 73.856C38.5791 73.856 39.1951 73.608 39.6591 73.112C40.1391 72.616 40.3791 71.952 40.3791 71.12V66.152C40.3791 65.336 40.1391 64.68 39.6591 64.184C39.1951 63.672 38.5791 63.416 37.8111 63.416C37.0591 63.416 36.4431 63.672 35.9631 64.184C35.4991 64.68 35.2671 65.336 35.2671 66.152V71.12C35.2671 71.952 35.4991 72.616 35.9631 73.112C36.4431 73.608 37.0591 73.856 37.8111 73.856ZM55.9813 60.488C55.9813 60.408 56.0053 60.344 56.0533 60.296C56.1173 60.232 56.1893 60.2 56.2693 60.2H59.6773C59.7573 60.2 59.8213 60.232 59.8693 60.296C59.9333 60.344 59.9653 60.408 59.9653 60.488V76.712C59.9653 76.792 59.9333 76.864 59.8693 76.928C59.8213 76.976 59.7573 77 59.6773 77H56.4133C56.2533 77 56.1413 76.936 56.0773 76.808L50.5573 67.64C50.5253 67.592 50.4933 67.576 50.4613 67.592C50.4293 67.592 50.4133 67.624 50.4133 67.688L50.4373 76.712C50.4373 76.792 50.4053 76.864 50.3413 76.928C50.2933 76.976 50.2293 77 50.1493 77H46.7413C46.6613 77 46.5893 76.976 46.5253 76.928C46.4773 76.864 46.4533 76.792 46.4533 76.712V60.488C46.4533 60.408 46.4773 60.344 46.5253 60.296C46.5893 60.232 46.6613 60.2 46.7413 60.2H50.0293C50.1893 60.2 50.3013 60.264 50.3653 60.392L55.8613 69.536C55.8933 69.584 55.9253 69.608 55.9573 69.608C55.9893 69.592 56.0053 69.552 56.0053 69.488L55.9813 60.488ZM66.928 77C66.768 77 66.664 76.92 66.616 76.76L61.768 60.536L61.744 60.44C61.744 60.28 61.832 60.2 62.008 60.2H65.68C65.856 60.2 65.968 60.28 66.016 60.44L68.776 71.36C68.792 71.408 68.816 71.432 68.848 71.432C68.88 71.432 68.904 71.408 68.92 71.36L71.632 60.44C71.68 60.28 71.792 60.2 71.968 60.2H75.568C75.664 60.2 75.736 60.232 75.784 60.296C75.832 60.36 75.84 60.44 75.808 60.536L70.888 76.76C70.84 76.92 70.736 77 70.576 77H66.928ZM77.8429 77C77.7629 77 77.6909 76.976 77.6269 76.928C77.5789 76.864 77.5549 76.792 77.5549 76.712V60.488C77.5549 60.408 77.5789 60.344 77.6269 60.296C77.6909 60.232 77.7629 60.2 77.8429 60.2H81.2509C81.3309 60.2 81.3949 60.232 81.4429 60.296C81.5069 60.344 81.5389 60.408 81.5389 60.488V76.712C81.5389 76.792 81.5069 76.864 81.4429 76.928C81.3949 76.976 81.3309 77 81.2509 77H77.8429ZM88.4905 77C88.3305 77 88.2265 76.92 88.1785 76.76L83.3305 60.536L83.3065 60.44C83.3065 60.28 83.3945 60.2 83.5705 60.2H87.2425C87.4185 60.2 87.5305 60.28 87.5785 60.44L90.3385 71.36C90.3545 71.408 90.3785 71.432 90.4105 71.432C90.4425 71.432 90.4665 71.408 90.4825 71.36L93.1945 60.44C93.2425 60.28 93.3545 60.2 93.5305 60.2H97.1305C97.2265 60.2 97.2985 60.232 97.3465 60.296C97.3945 60.36 97.4025 60.44 97.3705 60.536L92.4505 76.76C92.4025 76.92 92.2985 77 92.1385 77H88.4905ZM110.975 63.32C110.975 63.4 110.943 63.472 110.879 63.536C110.831 63.584 110.767 63.608 110.687 63.608H103.151C103.071 63.608 103.031 63.648 103.031 63.728V66.68C103.031 66.76 103.071 66.8 103.151 66.8H107.975C108.055 66.8 108.119 66.832 108.167 66.896C108.231 66.944 108.263 67.008 108.263 67.088V69.896C108.263 69.976 108.231 70.048 108.167 70.112C108.119 70.16 108.055 70.184 107.975 70.184H103.151C103.071 70.184 103.031 70.224 103.031 70.304V73.472C103.031 73.552 103.071 73.592 103.151 73.592H110.687C110.767 73.592 110.831 73.624 110.879 73.688C110.943 73.736 110.975 73.8 110.975 73.88V76.712C110.975 76.792 110.943 76.864 110.879 76.928C110.831 76.976 110.767 77 110.687 77H99.3351C99.2551 77 99.1831 76.976 99.1191 76.928C99.0711 76.864 99.0471 76.792 99.0471 76.712V60.488C99.0471 60.408 99.0711 60.344 99.1191 60.296C99.1831 60.232 99.2551 60.2 99.3351 60.2H110.687C110.767 60.2 110.831 60.232 110.879 60.296C110.943 60.344 110.975 60.408 110.975 60.488V63.32ZM101.159 58.88C101.047 58.88 100.967 58.848 100.919 58.784C100.887 58.704 100.903 58.616 100.967 58.52L102.695 56C102.775 55.872 102.887 55.808 103.031 55.808H106.871C107.015 55.808 107.127 55.872 107.207 56L108.983 58.52C109.015 58.568 109.031 58.624 109.031 58.688C109.031 58.816 108.951 58.88 108.791 58.88H106.199C106.039 58.88 105.927 58.816 105.863 58.688L105.071 57.416C105.039 57.368 105.007 57.344 104.975 57.344C104.943 57.344 104.919 57.368 104.903 57.416L104.111 58.688C104.047 58.816 103.935 58.88 103.775 58.88H101.159ZM122.427 60.488C122.427 60.408 122.451 60.344 122.499 60.296C122.563 60.232 122.635 60.2 122.715 60.2H126.123C126.203 60.2 126.267 60.232 126.315 60.296C126.379 60.344 126.411 60.408 126.411 60.488V76.712C126.411 76.792 126.379 76.864 126.315 76.928C126.267 76.976 126.203 77 126.123 77H122.859C122.699 77 122.587 76.936 122.523 76.808L117.003 67.64C116.971 67.592 116.939 67.576 116.907 67.592C116.875 67.592 116.859 67.624 116.859 67.688L116.883 76.712C116.883 76.792 116.851 76.864 116.787 76.928C116.739 76.976 116.675 77 116.595 77H113.187C113.107 77 113.035 76.976 112.971 76.928C112.923 76.864 112.899 76.792 112.899 76.712V60.488C112.899 60.408 112.923 60.344 112.971 60.296C113.035 60.232 113.107 60.2 113.187 60.2H116.475C116.635 60.2 116.747 60.264 116.811 60.392L122.307 69.536C122.339 69.584 122.371 69.608 122.403 69.608C122.435 69.592 122.451 69.552 122.451 69.488L122.427 60.488ZM134.957 77.192C133.677 77.192 132.549 76.944 131.573 76.448C130.613 75.952 129.861 75.248 129.317 74.336C128.789 73.424 128.525 72.368 128.525 71.168V65.984C128.525 64.8 128.789 63.76 129.317 62.864C129.861 61.952 130.613 61.248 131.573 60.752C132.549 60.256 133.677 60.008 134.957 60.008C136.237 60.008 137.357 60.248 138.317 60.728C139.293 61.192 140.045 61.856 140.573 62.72C141.117 63.568 141.389 64.552 141.389 65.672C141.389 65.752 141.357 65.816 141.293 65.864C141.245 65.912 141.181 65.936 141.101 65.936L137.693 66.152C137.501 66.152 137.405 66.064 137.405 65.888C137.405 65.136 137.181 64.536 136.733 64.088C136.285 63.64 135.693 63.416 134.957 63.416C134.221 63.416 133.629 63.648 133.181 64.112C132.733 64.56 132.509 65.152 132.509 65.888V71.336C132.509 72.072 132.733 72.664 133.181 73.112C133.629 73.56 134.221 73.784 134.957 73.784C135.693 73.784 136.285 73.56 136.733 73.112C137.181 72.664 137.405 72.072 137.405 71.336C137.405 71.16 137.501 71.072 137.693 71.072L141.101 71.24C141.181 71.24 141.245 71.264 141.293 71.312C141.357 71.36 141.389 71.416 141.389 71.48C141.389 72.616 141.117 73.616 140.573 74.48C140.045 75.344 139.293 76.016 138.317 76.496C137.357 76.96 136.237 77.192 134.957 77.192ZM143.702 77C143.622 77 143.55 76.976 143.486 76.928C143.438 76.864 143.414 76.792 143.414 76.712V60.488C143.414 60.408 143.438 60.344 143.486 60.296C143.55 60.232 143.622 60.2 143.702 60.2H147.11C147.19 60.2 147.254 60.232 147.302 60.296C147.366 60.344 147.398 60.408 147.398 60.488V76.712C147.398 76.792 147.366 76.864 147.302 76.928C147.254 76.976 147.19 77 147.11 77H143.702ZM160.734 77C160.558 77 160.446 76.92 160.398 76.76L159.774 74.624C159.742 74.56 159.702 74.528 159.654 74.528H154.182C154.134 74.528 154.094 74.56 154.062 74.624L153.438 76.76C153.39 76.92 153.278 77 153.102 77H149.43C149.334 77 149.262 76.976 149.214 76.928C149.166 76.864 149.158 76.776 149.19 76.664L154.326 60.44C154.374 60.28 154.478 60.2 154.638 60.2H159.174C159.334 60.2 159.438 60.28 159.486 60.44L164.646 76.664C164.662 76.696 164.67 76.736 164.67 76.784C164.67 76.928 164.582 77 164.406 77H160.734ZM155.022 71.312C155.006 71.408 155.038 71.456 155.118 71.456H158.694C158.79 71.456 158.822 71.408 158.79 71.312L156.966 65.144C156.95 65.08 156.926 65.056 156.894 65.072C156.862 65.072 156.838 65.096 156.822 65.144L155.022 71.312Z" fill="white"/>
<path d="M61.0645 95.744C61.9392 95.744 62.6325 96 63.1445 96.512C63.6565 97.0133 63.9125 97.696 63.9125 98.56V103.84C63.9125 103.947 63.8592 104 63.7525 104H62.5365C62.4298 104 62.3765 103.947 62.3765 103.84V98.864C62.3765 98.3307 62.2218 97.8987 61.9125 97.568C61.6032 97.2373 61.1925 97.072 60.6805 97.072C60.1792 97.072 59.7685 97.2373 59.4485 97.568C59.1285 97.8987 58.9685 98.3253 58.9685 98.848V103.84C58.9685 103.947 58.9152 104 58.8085 104H57.5925C57.4858 104 57.4325 103.947 57.4325 103.84V96.016C57.4325 95.9093 57.4858 95.856 57.5925 95.856H58.8085C58.9152 95.856 58.9685 95.9093 58.9685 96.016V96.592C58.9685 96.6133 58.9738 96.6293 58.9845 96.64C59.0058 96.6507 59.0218 96.6453 59.0325 96.624C59.4912 96.0373 60.1685 95.744 61.0645 95.744ZM69.3386 104.128C68.5493 104.128 67.8613 103.931 67.2746 103.536C66.688 103.131 66.2773 102.571 66.0426 101.856C65.8506 101.28 65.7546 100.629 65.7546 99.904C65.7546 99.1467 65.8453 98.5067 66.0266 97.984C66.2613 97.28 66.672 96.7307 67.2586 96.336C67.8453 95.9307 68.544 95.728 69.3546 95.728C70.1226 95.728 70.7893 95.9307 71.3546 96.336C71.9306 96.7307 72.3413 97.2747 72.5866 97.968C72.7786 98.512 72.8746 99.152 72.8746 99.888C72.8746 100.635 72.7786 101.291 72.5866 101.856C72.352 102.571 71.9466 103.131 71.3706 103.536C70.7946 103.931 70.1173 104.128 69.3386 104.128ZM69.3386 102.8C69.7653 102.8 70.1386 102.683 70.4586 102.448C70.7786 102.203 71.008 101.861 71.1466 101.424C71.264 101.019 71.3226 100.517 71.3226 99.92C71.3226 99.3227 71.2693 98.8267 71.1626 98.432C71.024 97.9947 70.7946 97.6587 70.4746 97.424C70.1546 97.1787 69.7653 97.056 69.3066 97.056C68.8693 97.056 68.4906 97.1787 68.1706 97.424C67.8506 97.6587 67.6213 97.9947 67.4826 98.432C67.3653 98.8053 67.3066 99.3013 67.3066 99.92C67.3066 100.539 67.3653 101.04 67.4826 101.424C67.6106 101.861 67.8346 102.203 68.1546 102.448C68.4853 102.683 68.88 102.8 69.3386 102.8ZM82.1048 104.128C81.3261 104.128 80.6381 103.979 80.0408 103.68C79.4541 103.371 78.9954 102.939 78.6648 102.384C78.3341 101.819 78.1688 101.173 78.1688 100.448V92.96C78.1688 92.8533 78.2221 92.8 78.3288 92.8H79.5448C79.6514 92.8 79.7048 92.8533 79.7048 92.96V100.48C79.7048 101.173 79.9234 101.733 80.3608 102.16C80.8088 102.587 81.3901 102.8 82.1048 102.8C82.8194 102.8 83.3954 102.587 83.8328 102.16C84.2701 101.733 84.4888 101.173 84.4888 100.48V92.96C84.4888 92.8533 84.5421 92.8 84.6488 92.8H85.8648C85.9714 92.8 86.0248 92.8533 86.0248 92.96V100.448C86.0248 101.173 85.8594 101.819 85.5288 102.384C85.2088 102.939 84.7501 103.371 84.1528 103.68C83.5661 103.979 82.8834 104.128 82.1048 104.128ZM95.9548 93.968C95.9548 94.0747 95.9014 94.128 95.7948 94.128H90.1308C90.0881 94.128 90.0668 94.1493 90.0668 94.192V97.632C90.0668 97.6747 90.0881 97.696 90.1308 97.696H94.0188C94.1254 97.696 94.1788 97.7493 94.1788 97.856V98.864C94.1788 98.9707 94.1254 99.024 94.0188 99.024H90.1308C90.0881 99.024 90.0668 99.0453 90.0668 99.088V103.84C90.0668 103.947 90.0134 104 89.9068 104H88.6908C88.5841 104 88.5308 103.947 88.5308 103.84V92.96C88.5308 92.8533 88.5841 92.8 88.6908 92.8H95.7948C95.9014 92.8 95.9548 92.8533 95.9548 92.96V93.968ZM105.002 93.968C105.002 94.0747 104.948 94.128 104.842 94.128H99.1776C99.135 94.128 99.1136 94.1493 99.1136 94.192V97.632C99.1136 97.6747 99.135 97.696 99.1776 97.696H103.066C103.172 97.696 103.226 97.7493 103.226 97.856V98.864C103.226 98.9707 103.172 99.024 103.066 99.024H99.1776C99.135 99.024 99.1136 99.0453 99.1136 99.088V103.84C99.1136 103.947 99.0603 104 98.9536 104H97.7376C97.631 104 97.5776 103.947 97.5776 103.84V92.96C97.5776 92.8533 97.631 92.8 97.7376 92.8H104.842C104.948 92.8 105.002 92.8533 105.002 92.96V93.968ZM114.065 93.968C114.065 94.0747 114.011 94.128 113.905 94.128H108.225C108.182 94.128 108.161 94.1493 108.161 94.192V97.632C108.161 97.6747 108.182 97.696 108.225 97.696H112.129C112.235 97.696 112.289 97.7493 112.289 97.856V98.864C112.289 98.9707 112.235 99.024 112.129 99.024H108.225C108.182 99.024 108.161 99.0453 108.161 99.088V102.608C108.161 102.651 108.182 102.672 108.225 102.672H113.905C114.011 102.672 114.065 102.725 114.065 102.832V103.84C114.065 103.947 114.011 104 113.905 104H106.785C106.678 104 106.625 103.947 106.625 103.84V92.96C106.625 92.8533 106.678 92.8 106.785 92.8H113.905C114.011 92.8 114.065 92.8533 114.065 92.96V93.968ZM122.571 104C122.486 104 122.427 103.963 122.395 103.888L120.155 99.104C120.144 99.072 120.123 99.056 120.091 99.056H117.787C117.744 99.056 117.723 99.0773 117.723 99.12V103.84C117.723 103.947 117.67 104 117.563 104H116.347C116.24 104 116.187 103.947 116.187 103.84V92.96C116.187 92.8533 116.24 92.8 116.347 92.8H120.651C121.291 92.8 121.851 92.9333 122.331 93.2C122.822 93.4667 123.2 93.84 123.467 94.32C123.734 94.8 123.867 95.3547 123.867 95.984C123.867 96.7307 123.67 97.3653 123.275 97.888C122.891 98.4 122.352 98.7467 121.659 98.928C121.616 98.9493 121.606 98.976 121.627 99.008L123.947 103.808C123.958 103.829 123.963 103.856 123.963 103.888C123.963 103.963 123.92 104 123.835 104H122.571ZM117.787 94.128C117.744 94.128 117.723 94.1493 117.723 94.192V97.776C117.723 97.8187 117.744 97.84 117.787 97.84H120.459C121.024 97.84 121.478 97.6747 121.819 97.344C122.16 97.0027 122.331 96.5547 122.331 96C122.331 95.4347 122.16 94.9813 121.819 94.64C121.478 94.2987 121.024 94.128 120.459 94.128H117.787Z" fill="white"/>
<path d="M183 1L230.5 130H311C318.214 128.73 320.243 125.207 320 113.5V15C320.215 3.43893 316.783 1.97335 309.5 1H183Z" fill="#EAEAEA" stroke="#EAEAEA"/>
<path d="M250.892 12.8443C251.785 11.8523 253.313 11.7722 254.305 12.6654L258.829 16.7387C259.821 17.6319 259.901 19.1602 259.008 20.1522C258.115 21.1442 256.587 21.2243 255.595 20.3311L251.071 16.2577C250.079 15.3645 249.999 13.8363 250.892 12.8443Z" fill="#004F9F"/>
<path d="M276.475 19.5876C275.453 18.7295 275.319 17.205 276.177 16.1824L280.461 11.0779C281.319 10.0554 282.843 9.92198 283.866 10.78C284.888 11.6381 285.022 13.1626 284.164 14.1852L279.88 19.2897C279.022 20.3122 277.498 20.4456 276.475 19.5876Z" fill="#004F9F"/>
<path d="M267.774 16.0481C266.394 16.0481 265.274 14.9288 265.274 13.5481V6.54808C265.274 5.16737 266.394 4.04808 267.774 4.04808C269.155 4.04808 270.274 5.16737 270.274 6.54808V13.5481C270.274 14.9288 269.155 16.0481 267.774 16.0481Z" fill="#004F9F"/>
<path d="M240.5 43.1723C240.5 40.9172 242.313 39.089 244.55 39.089H246.35C248.587 39.089 250.4 40.9172 250.4 43.1723V65.8575C250.4 68.1127 248.587 69.9408 246.35 69.9408H244.55C242.313 69.9408 240.5 68.1127 240.5 65.8575V43.1723Z" fill="#004F9F"/>
<path d="M253.1 48.1631C253.1 42.1493 257.935 37.2742 263.9 37.2742H275.6C281.565 37.2742 286.4 42.1493 286.4 48.1631V59.052C286.4 65.0657 281.565 69.9408 275.6 69.9408H263.9C257.935 69.9408 253.1 65.0657 253.1 59.052V48.1631Z" fill="#004F9F"/>
<path d="M262.1 41.3686C262.1 39.1134 263.913 37.2853 266.15 37.2853H287.75C289.987 37.2853 291.8 39.1134 291.8 41.3686V42.276C291.8 44.5312 289.987 46.3593 287.75 46.3593H266.15C263.913 46.3593 262.1 44.5312 262.1 42.276V41.3686Z" fill="#004F9F"/>
<path d="M263.9 49.5353C263.9 47.2801 265.713 45.4519 267.95 45.4519H290.45C292.687 45.4519 294.5 47.2801 294.5 49.5353V50.4427C294.5 52.6978 292.687 54.526 290.45 54.526H267.95C265.713 54.526 263.9 52.6978 263.9 50.4427V49.5353Z" fill="#004F9F"/>
<path d="M262.1 57.7019C262.1 55.4468 263.913 53.6186 266.15 53.6186H286.85C289.087 53.6186 290.9 55.4468 290.9 57.7019V58.6093C290.9 60.8645 289.087 62.6927 286.85 62.6927H266.15C263.913 62.6927 262.1 60.8645 262.1 58.6093V57.7019Z" fill="#004F9F"/>
<path d="M262.1 64.9612C262.1 62.706 263.913 60.8778 266.15 60.8778H283.25C285.487 60.8778 287.3 62.706 287.3 64.9612V65.8686C287.3 68.1237 285.487 69.9519 283.25 69.9519H266.15C263.913 69.9519 262.1 68.1237 262.1 65.8686V64.9612Z" fill="#004F9F"/>
<path d="M257.031 39.6602L253.642 47.7758C252.302 50.9825 253.91 54.3465 257.231 55.2895C260.553 56.2325 264.332 54.3975 265.671 51.1908L275.058 28.713C276.398 25.5064 274.79 22.1424 271.469 21.1994C269.505 20.642 267.382 21.0551 265.698 22.1483C265.604 28.9005 262.335 35.042 257.031 39.6602Z" fill="#004F9F"/>
<path d="M274.061 32.8016C272.066 37.1141 268.782 39.826 266.725 38.8589C264.668 37.8918 264.617 33.6118 266.611 29.2994C268.606 24.987 271.89 22.2751 273.947 23.2422C276.004 24.2093 276.055 28.4892 274.061 32.8016Z" fill="#004F9F"/>
<path d="M238.108 104.224C236.317 104.224 234.731 103.884 233.348 103.204C231.988 102.501 230.923 101.515 230.152 100.246C229.404 98.9766 229.03 97.5146 229.03 95.8599V80.5599C229.03 80.4466 229.064 80.3559 229.132 80.2879C229.223 80.1973 229.325 80.1519 229.438 80.1519H234.266C234.379 80.1519 234.47 80.1973 234.538 80.2879C234.629 80.3559 234.674 80.4466 234.674 80.5599V95.8599C234.674 96.9253 234.98 97.7866 235.592 98.4439C236.227 99.0786 237.065 99.3959 238.108 99.3959C239.128 99.3959 239.944 99.0786 240.556 98.4439C241.191 97.7866 241.508 96.9253 241.508 95.8599V80.5599C241.508 80.4466 241.542 80.3559 241.61 80.2879C241.701 80.1973 241.803 80.1519 241.916 80.1519H246.744C246.857 80.1519 246.948 80.1973 247.016 80.2879C247.107 80.3559 247.152 80.4466 247.152 80.5599V95.8599C247.152 97.5146 246.778 98.9766 246.03 100.246C245.282 101.515 244.217 102.501 242.834 103.204C241.474 103.884 239.899 104.224 238.108 104.224ZM260.958 86.3399C261.071 86.3399 261.162 86.3853 261.23 86.4759C261.32 86.5439 261.366 86.6346 261.366 86.7479V90.5559C261.366 90.6693 261.32 90.7713 261.23 90.8619C261.162 90.9299 261.071 90.9639 260.958 90.9639H257.762C257.648 90.9639 257.592 91.0206 257.592 91.1339V103.544C257.592 103.657 257.546 103.759 257.456 103.85C257.388 103.918 257.297 103.952 257.184 103.952H252.356C252.242 103.952 252.14 103.918 252.05 103.85C251.982 103.759 251.948 103.657 251.948 103.544V91.1339C251.948 91.0206 251.891 90.9639 251.778 90.9639H249.874C249.76 90.9639 249.658 90.9299 249.568 90.8619C249.5 90.7713 249.466 90.6693 249.466 90.5559V86.7479C249.466 86.6346 249.5 86.5439 249.568 86.4759C249.658 86.3853 249.76 86.3399 249.874 86.3399H251.778C251.891 86.3399 251.948 86.2833 251.948 86.1699V85.2519C251.948 83.9146 252.186 82.8719 252.662 82.1239C253.138 81.3533 253.897 80.8206 254.94 80.5259C255.982 80.2086 257.399 80.0839 259.19 80.1519H260.584C260.697 80.1519 260.788 80.1973 260.856 80.2879C260.946 80.3559 260.992 80.4466 260.992 80.5599V83.6539C260.992 83.7673 260.946 83.8693 260.856 83.9599C260.788 84.0279 260.697 84.0619 260.584 84.0619H259.258C258.646 84.1073 258.215 84.2546 257.966 84.5039C257.716 84.7533 257.592 85.1726 257.592 85.7619V86.1699C257.592 86.2833 257.648 86.3399 257.762 86.3399H260.958ZM274.504 86.3399C274.618 86.3399 274.708 86.3853 274.776 86.4759C274.867 86.5439 274.912 86.6346 274.912 86.7479V90.5559C274.912 90.6693 274.867 90.7713 274.776 90.8619C274.708 90.9299 274.618 90.9639 274.504 90.9639H271.308C271.195 90.9639 271.138 91.0206 271.138 91.1339V103.544C271.138 103.657 271.093 103.759 271.002 103.85C270.934 103.918 270.844 103.952 270.73 103.952H265.902C265.789 103.952 265.687 103.918 265.596 103.85C265.528 103.759 265.494 103.657 265.494 103.544V91.1339C265.494 91.0206 265.438 90.9639 265.324 90.9639H263.42C263.307 90.9639 263.205 90.9299 263.114 90.8619C263.046 90.7713 263.012 90.6693 263.012 90.5559V86.7479C263.012 86.6346 263.046 86.5439 263.114 86.4759C263.205 86.3853 263.307 86.3399 263.42 86.3399H265.324C265.438 86.3399 265.494 86.2833 265.494 86.1699V85.2519C265.494 83.9146 265.732 82.8719 266.208 82.1239C266.684 81.3533 267.444 80.8206 268.486 80.5259C269.529 80.2086 270.946 80.0839 272.736 80.1519H274.13C274.244 80.1519 274.334 80.1973 274.402 80.2879C274.493 80.3559 274.538 80.4466 274.538 80.5599V83.6539C274.538 83.7673 274.493 83.8693 274.402 83.9599C274.334 84.0279 274.244 84.0619 274.13 84.0619H272.804C272.192 84.1073 271.762 84.2546 271.512 84.5039C271.263 84.7533 271.138 85.1726 271.138 85.7619V86.1699C271.138 86.2833 271.195 86.3399 271.308 86.3399H274.504ZM292.628 93.6159C292.741 94.2959 292.775 95.1913 292.73 96.3019C292.707 96.5739 292.56 96.7099 292.288 96.7099H281.918C281.873 96.7099 281.827 96.7326 281.782 96.7779C281.737 96.8006 281.725 96.8346 281.748 96.8799C281.793 97.1293 281.907 97.4579 282.088 97.8659C282.36 98.3419 282.768 98.7273 283.312 99.0219C283.856 99.3166 284.525 99.4639 285.318 99.4639C286.746 99.4639 287.868 98.9993 288.684 98.0699C288.775 97.9566 288.877 97.8999 288.99 97.8999C289.103 97.8999 289.194 97.9453 289.262 98.0359L291.88 101.028C291.971 101.096 292.016 101.187 292.016 101.3C292.016 101.391 291.971 101.481 291.88 101.572C291.087 102.433 290.101 103.091 288.922 103.544C287.766 103.997 286.497 104.224 285.114 104.224C283.051 104.224 281.295 103.782 279.844 102.898C278.416 101.991 277.385 100.733 276.75 99.1239C276.274 97.9906 276.036 96.5739 276.036 94.8739C276.036 93.6953 276.217 92.5619 276.58 91.4739C277.169 89.7966 278.133 88.4819 279.47 87.5299C280.83 86.5553 282.439 86.0679 284.298 86.0679C285.794 86.0679 287.131 86.3966 288.31 87.0539C289.489 87.6886 290.441 88.5839 291.166 89.7399C291.914 90.8733 292.401 92.1653 292.628 93.6159ZM284.298 90.9299C283.119 90.9299 282.337 91.4853 281.952 92.5959C281.861 92.8453 281.805 93.0833 281.782 93.3099C281.737 93.4233 281.782 93.4799 281.918 93.4799H286.746C286.837 93.4799 286.882 93.4346 286.882 93.3439C286.882 93.1626 286.837 92.9359 286.746 92.6639C286.587 92.0973 286.293 91.6666 285.862 91.3719C285.454 91.0773 284.933 90.9299 284.298 90.9299ZM304.385 86.1359C305.201 86.1359 305.836 86.2833 306.289 86.5779C306.471 86.6913 306.539 86.8613 306.493 87.0879L305.711 91.8139C305.689 92.0859 305.53 92.1653 305.235 92.0519C304.827 91.9613 304.442 91.9159 304.079 91.9159C303.694 91.9159 303.399 91.9386 303.195 91.9839C302.493 92.0746 301.892 92.3466 301.393 92.7999C300.917 93.2533 300.679 93.8539 300.679 94.6019V103.544C300.679 103.657 300.634 103.759 300.543 103.85C300.475 103.918 300.385 103.952 300.271 103.952H295.443C295.33 103.952 295.228 103.918 295.137 103.85C295.069 103.759 295.035 103.657 295.035 103.544V86.7819C295.035 86.6686 295.069 86.5779 295.137 86.5099C295.228 86.4193 295.33 86.3739 295.443 86.3739H300.271C300.385 86.3739 300.475 86.4193 300.543 86.5099C300.634 86.5779 300.679 86.6686 300.679 86.7819V87.8699C300.679 87.9379 300.702 87.9833 300.747 88.0059C300.793 88.0286 300.827 88.0059 300.849 87.9379C301.756 86.7366 302.935 86.1359 304.385 86.1359Z" fill="#004F9F"/>
</svg>
