<svg width="32" height="32" viewBox="0 0 32 32" fill="none" xmlns="http://www.w3.org/2000/svg">
<mask id="mask0_235_54" style="mask-type:alpha" maskUnits="userSpaceOnUse" x="0" y="0" width="32" height="32">
<rect width="32" height="32" fill="#D9D9D9"/>
</mask>
<g mask="url(#mask0_235_54)">
<path d="M8 25.3333V26.6667C8 27.0444 7.87222 27.3611 7.61667 27.6167C7.36111 27.8722 7.04444 28 6.66667 28H5.33333C4.95556 28 4.63889 27.8722 4.38333 27.6167C4.12778 27.3611 4 27.0444 4 26.6667V16L6.8 7.99999C6.93333 7.59999 7.17222 7.27777 7.51667 7.03332C7.86111 6.78888 8.24444 6.66666 8.66667 6.66666H23.3333C23.7556 6.66666 24.1389 6.78888 24.4833 7.03332C24.8278 7.27777 25.0667 7.59999 25.2 7.99999L28 16V26.6667C28 27.0444 27.8722 27.3611 27.6167 27.6167C27.3611 27.8722 27.0444 28 26.6667 28H25.3333C24.9556 28 24.6389 27.8722 24.3833 27.6167C24.1278 27.3611 24 27.0444 24 26.6667V25.3333H8ZM7.73333 13.3333H24.2667L22.8667 9.33332H9.13333L7.73333 13.3333ZM10 21.3333C10.5556 21.3333 11.0278 21.1389 11.4167 20.75C11.8056 20.3611 12 19.8889 12 19.3333C12 18.7778 11.8056 18.3055 11.4167 17.9167C11.0278 17.5278 10.5556 17.3333 10 17.3333C9.44444 17.3333 8.97222 17.5278 8.58333 17.9167C8.19444 18.3055 8 18.7778 8 19.3333C8 19.8889 8.19444 20.3611 8.58333 20.75C8.97222 21.1389 9.44444 21.3333 10 21.3333ZM22 21.3333C22.5556 21.3333 23.0278 21.1389 23.4167 20.75C23.8056 20.3611 24 19.8889 24 19.3333C24 18.7778 23.8056 18.3055 23.4167 17.9167C23.0278 17.5278 22.5556 17.3333 22 17.3333C21.4444 17.3333 20.9722 17.5278 20.5833 17.9167C20.1944 18.3055 20 18.7778 20 19.3333C20 19.8889 20.1944 20.3611 20.5833 20.75C20.9722 21.1389 21.4444 21.3333 22 21.3333ZM6.66667 22.6667H25.3333V16H6.66667V22.6667Z" fill="#004F9F"/>
</g>
</svg>
