<svg width="32" height="32" viewBox="0 0 32 32" fill="none" xmlns="http://www.w3.org/2000/svg">
<mask id="mask0_235_118" style="mask-type:alpha" maskUnits="userSpaceOnUse" x="0" y="0" width="32" height="32">
<rect x="6.10352e-05" width="32" height="32" fill="#D9D9D9"/>
</mask>
<g mask="url(#mask0_235_118)">
<path d="M15.8334 27.1111C15.9371 27.1111 16.0519 27.0852 16.1778 27.0333C16.3037 26.9815 16.4037 26.9185 16.4778 26.8445L27.6112 15.6889C27.8926 15.4074 28.1019 15.0877 28.2389 14.7296C28.376 14.3716 28.4445 14.0136 28.4445 13.6556C28.4445 13.2852 28.376 12.9204 28.2389 12.5611C28.1019 12.2019 27.8926 11.8852 27.6112 11.6111L21.7223 5.7222C21.4482 5.44074 21.1315 5.23148 20.7723 5.09444C20.413 4.95739 20.0482 4.88887 19.6778 4.88887C19.3198 4.88887 18.9618 4.95739 18.6037 5.09444C18.2457 5.23148 17.926 5.44074 17.6445 5.7222L17.1222 6.24444L19.7445 8.9C20.0482 9.21112 20.3 9.57037 20.5 9.97777C20.7 10.3852 20.8 10.8259 20.8 11.3C20.8 12.1741 20.476 12.9315 19.8278 13.5722C19.1797 14.213 18.4186 14.5333 17.5445 14.5333C17.026 14.5333 16.576 14.4519 16.1945 14.2889C15.813 14.1259 15.469 13.8901 15.1626 13.5813L12.7 11.1333L6.73336 17.1C6.63707 17.1963 6.56855 17.2983 6.5278 17.4061C6.48706 17.5139 6.4667 17.6294 6.4667 17.7526C6.4667 17.999 6.55189 18.2093 6.72226 18.3833C6.89262 18.5574 7.10125 18.6445 7.34816 18.6445C7.47163 18.6445 7.58892 18.6148 7.70003 18.5556C7.81114 18.4963 7.90373 18.4296 7.9778 18.3556L12.5556 13.7778L14.1111 15.3333L9.5667 19.8889C9.47041 19.9852 9.40189 20.0907 9.36113 20.2056C9.3204 20.3204 9.30003 20.437 9.30003 20.5556C9.30003 20.7926 9.38892 21 9.5667 21.1778C9.74447 21.3556 9.95189 21.4445 10.1889 21.4445C10.3074 21.4445 10.4223 21.4185 10.5334 21.3667C10.6445 21.3148 10.7371 21.2519 10.8111 21.1778L15.3889 16.6111L16.9445 18.1667L12.4 22.7222C12.3185 22.7963 12.2537 22.8951 12.2056 23.0185C12.1574 23.142 12.1334 23.2654 12.1334 23.3889C12.1334 23.6259 12.2223 23.8334 12.4 24.0111C12.5778 24.1889 12.7852 24.2778 13.0223 24.2778C13.1408 24.2778 13.25 24.2574 13.35 24.2167C13.45 24.1759 13.5482 24.1074 13.6445 24.0111L18.2223 19.4445L19.7778 21L15.2 25.5778C15.1037 25.6741 15.0352 25.7796 14.9945 25.8944C14.9537 26.0093 14.9334 26.1185 14.9334 26.2222C14.9334 26.4889 15.0167 26.7037 15.1834 26.8667C15.35 27.0296 15.5667 27.1111 15.8334 27.1111ZM15.8237 29.3333C15.0598 29.3333 14.3797 29.0611 13.7834 28.5167C13.1871 27.9722 12.8334 27.2954 12.7223 26.4862C11.9667 26.3769 11.3334 26.0667 10.8223 25.5556C10.3112 25.0445 10 24.4111 9.88893 23.6556C9.13337 23.5445 8.5056 23.2278 8.0056 22.7056C7.5056 22.1833 7.20004 21.5556 7.08893 20.8222C6.25931 20.7111 5.57783 20.3667 5.0445 19.7889C4.51116 19.2111 4.2445 18.5222 4.2445 17.7222C4.2445 17.3222 4.32207 16.9274 4.47723 16.5378C4.63241 16.1482 4.85482 15.806 5.14446 15.5111L12.7 7.96667L16.6 11.8667C16.7334 12.0074 16.884 12.1167 17.0519 12.1945C17.2198 12.2722 17.3877 12.3111 17.5556 12.3111C17.8148 12.3111 18.0519 12.2056 18.2667 11.9944C18.4815 11.7833 18.5889 11.547 18.5889 11.2855C18.5889 11.1692 18.5575 11.0407 18.4945 10.9C18.4315 10.7592 18.3297 10.6222 18.1889 10.4889L13.4223 5.7222C13.1482 5.44074 12.8315 5.23148 12.4723 5.09444C12.113 4.95739 11.7482 4.88887 11.3778 4.88887C11.0198 4.88887 10.6618 4.95739 10.3037 5.09444C9.94571 5.23148 9.62639 5.43968 9.34576 5.71904L4.40003 10.6778C4.12594 10.9519 3.92594 11.2482 3.80003 11.5667C3.6741 11.8852 3.59632 12.2333 3.5667 12.6111C3.53705 12.9889 3.59261 13.3611 3.73336 13.7278C3.8741 14.0945 4.05557 14.4297 4.2778 14.7334L2.6778 16.3333C2.25557 15.837 1.92224 15.2574 1.6778 14.5945C1.43335 13.9315 1.31854 13.2593 1.33336 12.5778C1.34819 11.9259 1.48522 11.2981 1.74446 10.6944C2.00373 10.0907 2.3667 9.55557 2.83336 9.0889L7.7556 4.16667C8.25929 3.67038 8.82627 3.30001 9.45656 3.05557C10.0868 2.81113 10.7331 2.6889 11.3954 2.6889C12.0578 2.6889 12.7019 2.81113 13.3278 3.05557C13.9537 3.30001 14.5148 3.67038 15.0111 4.16667L15.5334 4.6889L16.0556 4.16667C16.5593 3.67038 17.1263 3.30001 17.7566 3.05557C18.3868 2.81113 19.0331 2.6889 19.6954 2.6889C20.3578 2.6889 21.0019 2.81113 21.6278 3.05557C22.2537 3.30001 22.8148 3.67038 23.3111 4.16667L29.1667 10.0222C29.663 10.5185 30.0371 11.0854 30.2889 11.723C30.5408 12.3605 30.6667 13.0086 30.6667 13.6674C30.6667 14.3262 30.5408 14.9685 30.2889 15.5944C30.0371 16.2204 29.663 16.7815 29.1667 17.2778L18.0334 28.4C17.7371 28.6963 17.398 28.9259 17.016 29.0889C16.634 29.2519 16.2366 29.3333 15.8237 29.3333Z" fill="#415F91"/>
</g>
</svg>
