<svg width="128" height="128" viewBox="0 0 128 128" fill="none" xmlns="http://www.w3.org/2000/svg">
<path d="M47.3917 19.3443C48.2849 18.3523 49.8132 18.2722 50.8052 19.1654L55.3291 23.2387C56.3211 24.1319 56.4012 25.6602 55.508 26.6522C54.6148 27.6442 53.0865 27.7243 52.0945 26.8311L47.5706 22.7578C46.5786 21.8646 46.4985 20.3363 47.3917 19.3443Z" fill="#004F9F"/>
<path d="M72.9753 26.0876C71.9527 25.2296 71.8193 23.705 72.6774 22.6824L76.9605 17.5779C77.8186 16.5554 79.3431 16.422 80.3657 17.28C81.3883 18.1381 81.5216 19.6626 80.6636 20.6852L76.3804 25.7897C75.5224 26.8123 73.9978 26.9456 72.9753 26.0876Z" fill="#004F9F"/>
<path d="M64.2744 22.5481C62.8937 22.5481 61.7744 21.4288 61.7744 20.0481V13.0481C61.7744 11.6674 62.8937 10.5481 64.2744 10.5481C65.6551 10.5481 66.7744 11.6674 66.7744 13.0481V20.0481C66.7744 21.4288 65.6551 22.5481 64.2744 22.5481Z" fill="#004F9F"/>
<path d="M37 49.6723C37 47.4171 38.8132 45.589 41.05 45.589H42.85C45.0868 45.589 46.9 47.4171 46.9 49.6723V72.3575C46.9 74.6127 45.0868 76.4408 42.85 76.4408H41.05C38.8132 76.4408 37 74.6127 37 72.3575V49.6723Z" fill="#004F9F"/>
<path d="M49.6 54.663C49.6 48.6493 54.4353 43.7742 60.4 43.7742H72.1C78.0647 43.7742 82.9 48.6493 82.9 54.663V65.5519C82.9 71.5657 78.0647 76.4408 72.1 76.4408H60.4C54.4353 76.4408 49.6 71.5657 49.6 65.5519V54.663Z" fill="#004F9F"/>
<path d="M58.6 47.8686C58.6 45.6134 60.4132 43.7852 62.65 43.7852H84.25C86.4868 43.7852 88.3 45.6134 88.3 47.8686V48.776C88.3 51.0311 86.4868 52.8593 84.25 52.8593H62.65C60.4132 52.8593 58.6 51.0311 58.6 48.776V47.8686Z" fill="#004F9F"/>
<path d="M60.4 56.0352C60.4 53.7801 62.2132 51.9519 64.45 51.9519H86.95C89.1868 51.9519 91 53.7801 91 56.0352V56.9426C91 59.1978 89.1868 61.026 86.95 61.026H64.45C62.2132 61.026 60.4 59.1978 60.4 56.9426V56.0352Z" fill="#004F9F"/>
<path d="M58.6 64.2019C58.6 61.9467 60.4132 60.1186 62.65 60.1186H83.35C85.5868 60.1186 87.4 61.9467 87.4 64.2019V65.1093C87.4 67.3645 85.5868 69.1926 83.35 69.1926H62.65C60.4132 69.1926 58.6 67.3645 58.6 65.1093V64.2019Z" fill="#004F9F"/>
<path d="M58.6 71.4612C58.6 69.206 60.4132 67.3778 62.65 67.3778H79.75C81.9868 67.3778 83.8 69.206 83.8 71.4612V72.3686C83.8 74.6237 81.9868 76.4519 79.75 76.4519H62.65C60.4132 76.4519 58.6 74.6237 58.6 72.3686V71.4612Z" fill="#004F9F"/>
<path d="M53.531 46.1601L50.1416 54.2758C48.8023 57.4825 50.4095 60.8465 53.7313 61.7895C57.0531 62.7325 60.8316 60.8974 62.1708 57.6908L71.5584 35.213C72.8976 32.0063 71.2904 28.6424 67.9686 27.6993C66.0053 27.142 63.8824 27.5551 62.1979 28.6483C62.1037 35.4005 58.8349 41.542 53.531 46.1601Z" fill="#004F9F"/>
<path d="M70.5606 39.3016C68.5661 43.614 65.2817 46.326 63.2246 45.3589C61.1676 44.3917 61.1169 40.1118 63.1114 35.7994C65.1059 31.487 68.3903 28.7751 70.4473 29.7422C72.5044 30.7093 72.5551 34.9892 70.5606 39.3016Z" fill="#004F9F"/>
<path d="M34.608 110.724C32.8173 110.724 31.2307 110.384 29.848 109.704C28.488 109.001 27.4227 108.015 26.652 106.746C25.904 105.477 25.53 104.015 25.53 102.36V87.0599C25.53 86.9466 25.564 86.8559 25.632 86.7879C25.7227 86.6972 25.8247 86.6519 25.938 86.6519H30.766C30.8793 86.6519 30.97 86.6972 31.038 86.7879C31.1287 86.8559 31.174 86.9466 31.174 87.0599V102.36C31.174 103.425 31.48 104.287 32.092 104.944C32.7267 105.579 33.5653 105.896 34.608 105.896C35.628 105.896 36.444 105.579 37.056 104.944C37.6907 104.287 38.008 103.425 38.008 102.36V87.0599C38.008 86.9466 38.042 86.8559 38.11 86.7879C38.2007 86.6972 38.3027 86.6519 38.416 86.6519H43.244C43.3573 86.6519 43.448 86.6972 43.516 86.7879C43.6067 86.8559 43.652 86.9466 43.652 87.0599V102.36C43.652 104.015 43.278 105.477 42.53 106.746C41.782 108.015 40.7167 109.001 39.334 109.704C37.974 110.384 36.3987 110.724 34.608 110.724ZM57.4576 92.8399C57.5709 92.8399 57.6616 92.8852 57.7296 92.9759C57.8203 93.0439 57.8656 93.1346 57.8656 93.2479V97.0559C57.8656 97.1692 57.8203 97.2712 57.7296 97.3619C57.6616 97.4299 57.5709 97.4639 57.4576 97.4639H54.2616C54.1483 97.4639 54.0916 97.5206 54.0916 97.6339V110.044C54.0916 110.157 54.0463 110.259 53.9556 110.35C53.8876 110.418 53.7969 110.452 53.6836 110.452H48.8556C48.7423 110.452 48.6403 110.418 48.5496 110.35C48.4816 110.259 48.4476 110.157 48.4476 110.044V97.6339C48.4476 97.5206 48.3909 97.4639 48.2776 97.4639H46.3736C46.2603 97.4639 46.1583 97.4299 46.0676 97.3619C45.9996 97.2712 45.9656 97.1692 45.9656 97.0559V93.2479C45.9656 93.1346 45.9996 93.0439 46.0676 92.9759C46.1583 92.8852 46.2603 92.8399 46.3736 92.8399H48.2776C48.3909 92.8399 48.4476 92.7832 48.4476 92.6699V91.7519C48.4476 90.4146 48.6856 89.3719 49.1616 88.6239C49.6376 87.8532 50.3969 87.3206 51.4396 87.0259C52.4823 86.7086 53.8989 86.5839 55.6896 86.6519H57.0836C57.1969 86.6519 57.2876 86.6972 57.3556 86.7879C57.4463 86.8559 57.4916 86.9466 57.4916 87.0599V90.1539C57.4916 90.2672 57.4463 90.3692 57.3556 90.4599C57.2876 90.5279 57.1969 90.5619 57.0836 90.5619H55.7576C55.1456 90.6072 54.7149 90.7546 54.4656 91.0039C54.2163 91.2532 54.0916 91.6726 54.0916 92.2619V92.6699C54.0916 92.7832 54.1483 92.8399 54.2616 92.8399H57.4576ZM71.0045 92.8399C71.1178 92.8399 71.2085 92.8852 71.2765 92.9759C71.3671 93.0439 71.4125 93.1346 71.4125 93.2479V97.0559C71.4125 97.1692 71.3671 97.2712 71.2765 97.3619C71.2085 97.4299 71.1178 97.4639 71.0045 97.4639H67.8085C67.6951 97.4639 67.6385 97.5206 67.6385 97.6339V110.044C67.6385 110.157 67.5931 110.259 67.5025 110.35C67.4345 110.418 67.3438 110.452 67.2305 110.452H62.4025C62.2891 110.452 62.1871 110.418 62.0965 110.35C62.0285 110.259 61.9945 110.157 61.9945 110.044V97.6339C61.9945 97.5206 61.9378 97.4639 61.8245 97.4639H59.9205C59.8071 97.4639 59.7051 97.4299 59.6145 97.3619C59.5465 97.2712 59.5125 97.1692 59.5125 97.0559V93.2479C59.5125 93.1346 59.5465 93.0439 59.6145 92.9759C59.7051 92.8852 59.8071 92.8399 59.9205 92.8399H61.8245C61.9378 92.8399 61.9945 92.7832 61.9945 92.6699V91.7519C61.9945 90.4146 62.2325 89.3719 62.7085 88.6239C63.1845 87.8532 63.9438 87.3206 64.9865 87.0259C66.0291 86.7086 67.4458 86.5839 69.2365 86.6519H70.6305C70.7438 86.6519 70.8345 86.6972 70.9025 86.7879C70.9931 86.8559 71.0385 86.9466 71.0385 87.0599V90.1539C71.0385 90.2672 70.9931 90.3692 70.9025 90.4599C70.8345 90.5279 70.7438 90.5619 70.6305 90.5619H69.3045C68.6925 90.6072 68.2618 90.7546 68.0125 91.0039C67.7631 91.2532 67.6385 91.6726 67.6385 92.2619V92.6699C67.6385 92.7832 67.6951 92.8399 67.8085 92.8399H71.0045ZM89.1281 100.116C89.2414 100.796 89.2754 101.691 89.2301 102.802C89.2074 103.074 89.0601 103.21 88.7881 103.21H78.4181C78.3727 103.21 78.3274 103.233 78.2821 103.278C78.2367 103.301 78.2254 103.335 78.2481 103.38C78.2934 103.629 78.4067 103.958 78.5881 104.366C78.8601 104.842 79.2681 105.227 79.8121 105.522C80.3561 105.817 81.0247 105.964 81.8181 105.964C83.2461 105.964 84.3681 105.499 85.1841 104.57C85.2747 104.457 85.3767 104.4 85.4901 104.4C85.6034 104.4 85.6941 104.445 85.7621 104.536L88.3801 107.528C88.4707 107.596 88.5161 107.687 88.5161 107.8C88.5161 107.891 88.4707 107.981 88.3801 108.072C87.5867 108.933 86.6007 109.591 85.4221 110.044C84.2661 110.497 82.9967 110.724 81.6141 110.724C79.5514 110.724 77.7947 110.282 76.3441 109.398C74.9161 108.491 73.8847 107.233 73.2501 105.624C72.7741 104.491 72.5361 103.074 72.5361 101.374C72.5361 100.195 72.7174 99.0619 73.0801 97.9739C73.6694 96.2966 74.6327 94.9819 75.9701 94.0299C77.3301 93.0552 78.9394 92.5679 80.7981 92.5679C82.2941 92.5679 83.6314 92.8966 84.8101 93.5539C85.9887 94.1886 86.9407 95.0839 87.6661 96.2399C88.4141 97.3732 88.9014 98.6652 89.1281 100.116ZM80.7981 97.4299C79.6194 97.4299 78.8374 97.9852 78.4521 99.0959C78.3614 99.3452 78.3047 99.5832 78.2821 99.8099C78.2367 99.9232 78.2821 99.9799 78.4181 99.9799H83.2461C83.3367 99.9799 83.3821 99.9346 83.3821 99.8439C83.3821 99.6626 83.3367 99.4359 83.2461 99.1639C83.0874 98.5972 82.7927 98.1666 82.3621 97.8719C81.9541 97.5772 81.4327 97.4299 80.7981 97.4299ZM100.885 92.6359C101.701 92.6359 102.336 92.7832 102.789 93.0779C102.971 93.1912 103.039 93.3612 102.993 93.5879L102.211 98.3139C102.189 98.5859 102.03 98.6652 101.735 98.5519C101.327 98.4612 100.942 98.4159 100.579 98.4159C100.194 98.4159 99.8994 98.4386 99.6954 98.4839C98.9928 98.5746 98.3921 98.8466 97.8934 99.2999C97.4174 99.7532 97.1794 100.354 97.1794 101.102V110.044C97.1794 110.157 97.1341 110.259 97.0434 110.35C96.9754 110.418 96.8848 110.452 96.7714 110.452H91.9434C91.8301 110.452 91.7281 110.418 91.6374 110.35C91.5694 110.259 91.5354 110.157 91.5354 110.044V93.2819C91.5354 93.1686 91.5694 93.0779 91.6374 93.0099C91.7281 92.9192 91.8301 92.8739 91.9434 92.8739H96.7714C96.8848 92.8739 96.9754 92.9192 97.0434 93.0099C97.1341 93.0779 97.1794 93.1686 97.1794 93.2819V94.3699C97.1794 94.4379 97.2021 94.4832 97.2474 94.5059C97.2928 94.5286 97.3268 94.5059 97.3494 94.4379C98.2561 93.2366 99.4348 92.6359 100.885 92.6359Z" fill="#004F9F"/>
</svg>
