<svg width="33" height="32" viewBox="0 0 33 32" fill="none" xmlns="http://www.w3.org/2000/svg">
<mask id="mask0_235_123" style="mask-type:alpha" maskUnits="userSpaceOnUse" x="0" y="0" width="33" height="32">
<rect x="0.333313" width="32" height="32" fill="#D9D9D9"/>
</mask>
<g mask="url(#mask0_235_123)">
<path d="M16.3333 15.9778C14.8666 15.9778 13.6481 15.4926 12.6777 14.5222C11.7074 13.5518 11.2222 12.3333 11.2222 10.8667C11.2222 9.39999 11.7074 8.18148 12.6777 7.21112C13.6481 6.24074 14.8666 5.75555 16.3333 5.75555C17.8 5.75555 19.0185 6.24074 19.9889 7.21112C20.9592 8.18148 21.4444 9.39999 21.4444 10.8667C21.4444 12.3333 20.9592 13.5518 19.9889 14.5222C19.0185 15.4926 17.8 15.9778 16.3333 15.9778ZM5.66663 26.6667V23.3333C5.66663 22.5185 5.87218 21.8056 6.28329 21.1945C6.6944 20.5833 7.22959 20.1185 7.88886 19.8C9.3407 19.1259 10.7592 18.6204 12.1444 18.2833C13.5296 17.9463 14.9259 17.7778 16.3333 17.7778C17.7407 17.7778 19.1333 17.95 20.5111 18.2945C21.8888 18.6389 23.3031 19.1422 24.7538 19.8043C25.4323 20.1247 25.9763 20.5893 26.3858 21.198C26.7952 21.8067 27 22.5185 27 23.3333V26.6667H5.66663ZM7.88883 24.4445H24.7778V23.3333C24.7778 23.0148 24.687 22.7148 24.5055 22.4333C24.324 22.1518 24.0963 21.9407 23.8222 21.8C22.474 21.1407 21.2037 20.6759 20.0111 20.4056C18.8185 20.1352 17.5926 20 16.3333 20C15.074 20 13.8407 20.1352 12.6333 20.4056C11.4259 20.6759 10.1555 21.1407 8.82219 21.8C8.5481 21.9407 8.32403 22.1518 8.14996 22.4333C7.97587 22.7148 7.88883 23.0148 7.88883 23.3333V24.4445ZM16.3333 13.7556C17.1555 13.7556 17.8425 13.4796 18.3944 12.9278C18.9463 12.3759 19.2222 11.6889 19.2222 10.8667C19.2222 10.0444 18.9463 9.3574 18.3944 8.80555C17.8425 8.25369 17.1555 7.97775 16.3333 7.97775C15.5111 7.97775 14.824 8.25369 14.2722 8.80555C13.7203 9.3574 13.4444 10.0444 13.4444 10.8667C13.4444 11.6889 13.7203 12.3759 14.2722 12.9278C14.824 13.4796 15.5111 13.7556 16.3333 13.7556Z" fill="#415F91"/>
</g>
</svg>
