<svg width="32" height="32" viewBox="0 0 32 32" fill="none" xmlns="http://www.w3.org/2000/svg">
<mask id="mask0_235_59" style="mask-type:alpha" maskUnits="userSpaceOnUse" x="0" y="0" width="32" height="32">
<rect width="32" height="32" fill="#D9D9D9"/>
</mask>
<g mask="url(#mask0_235_59)">
<path d="M24 28H9.33329V10.6667L18.6666 1.33334L20.3333 3.00001C20.4888 3.15557 20.6166 3.36668 20.7166 3.63334C20.8166 3.90001 20.8666 4.15557 20.8666 4.40001V4.86668L19.4 10.6667H28C28.7111 10.6667 29.3333 10.9333 29.8666 11.4667C30.4 12 30.6666 12.6222 30.6666 13.3333V16C30.6666 16.1556 30.6444 16.3222 30.6 16.5C30.5555 16.6778 30.5111 16.8445 30.4666 17L26.4666 26.4C26.2666 26.8445 25.9333 27.2222 25.4666 27.5333C25 27.8445 24.5111 28 24 28ZM12 25.3333H24L28 16V13.3333H16L17.8 6.00001L12 11.8V25.3333ZM9.33329 10.6667V13.3333H5.33329V25.3333H9.33329V28H2.66663V10.6667H9.33329Z" fill="#004F9F"/>
</g>
</svg>
